HIERARCHY
ROOT root
{
	OFFSET	0	13.1	24.9
	CHANNELS 6  Xposition Yposition Zposition Xrotation Yrotation Zrotation
	JOINT spine_1
	{
		OFFSET	0	9.99999	0
		CHANNELS 3  Xrotation Yrotation Zrotation
		JOINT spine_2
		{
			OFFSET	0	112	-10
			CHANNELS 3  Xrotation Yrotation Zrotation
			JOINT spine_3
			{
				OFFSET	0	206.5	19.3
				CHANNELS 3  Xrotation Yrotation Zrotation
				JOINT spine_4
				{
					OFFSET	0	110.4	14.6
					CHANNELS 3  Xrotation Yrotation Zrotation
					JOINT neck_1
					{
						OFFSET	0	71.8	-50.3
						CHANNELS 3  Xrotation Yrotation Zrotation
						JOINT neck_2
						{
							OFFSET	0	86.2	-25.8
							CHANNELS 3  Xrotation Yrotation Zrotation
							JOINT head_ee
							{
								OFFSET	0	179.8	-8.7
								CHANNELS 3  Xrotation Yrotation Zrotation
								End Site
								{
									OFFSET	1	0	0
								}
							}
						}
					}
					JOINT left_clavicle
					{
						OFFSET	-43.2	22.4	-70.8
						CHANNELS 3  Xrotation Yrotation Zrotation
						JOINT left_shoulder
						{
							OFFSET	-93.9	-5.79999	48.7
							CHANNELS 3  Xrotation Yrotation Zrotation
							JOINT left_elbow
							{
								OFFSET	-291.4	-30.8	15.2
								CHANNELS 3  Xrotation Yrotation Zrotation
								JOINT left_lowarm_twist
								{
									OFFSET	-110.7	-3.89999	13.6
									CHANNELS 3  Xrotation Yrotation Zrotation
									JOINT left_hand
									{
										OFFSET	-110.7	-3.89999	13.6
										CHANNELS 3  Xrotation Yrotation Zrotation
										JOINT left_ee
										{
											OFFSET	-80.8	-5.10001	12.1
											CHANNELS 3  Xrotation Yrotation Zrotation
											End Site
											{
												OFFSET	1	0	0
											}
										}
									}
								}
							}
						}
					}
					JOINT right_clavicle
					{
						OFFSET	43.2	22.4	-70.8
						CHANNELS 3  Xrotation Yrotation Zrotation
						JOINT right_shoulder
						{
							OFFSET	93.9	-5.79999	48.7
							CHANNELS 3  Xrotation Yrotation Zrotation
							JOINT right_elbow
							{
								OFFSET	291.4	-30.8	15.2
								CHANNELS 3  Xrotation Yrotation Zrotation
								JOINT right_lowarm_twist
								{
									OFFSET	110.7	-3.89999	13.6
									CHANNELS 3  Xrotation Yrotation Zrotation
									JOINT right_hand
									{
										OFFSET	110.7	-3.89999	13.6
										CHANNELS 3  Xrotation Yrotation Zrotation
										JOINT right_ee
										{
											OFFSET	80.8	-5.10001	12.1
											CHANNELS 3  Xrotation Yrotation Zrotation
											End Site
											{
												OFFSET	1	0	0
											}
										}
									}
								}
							}
						}
					}
				}
			}
		}
	}
	JOINT left_hip
	{
		OFFSET	-82.8	-127.5	0.300001
		CHANNELS 3  Xrotation Yrotation Zrotation
		JOINT left_knee
		{
			OFFSET	-28.2	-396.7	2.2
			CHANNELS 3  Xrotation Yrotation Zrotation
			JOINT left_ankle
			{
				OFFSET	-11.7	-411.3	35.4
				CHANNELS 3  Xrotation Yrotation Zrotation
				JOINT left_toes
				{
					OFFSET	0	-60	-88.6
					CHANNELS 3  Xrotation Yrotation Zrotation
					JOINT left_foot_ee
					{
						OFFSET	-22.5	-16.5	-42.2
						CHANNELS 3  Xrotation Yrotation Zrotation
						End Site
						{
							OFFSET	1	0	0
						}
					}
				}
			}
		}
	}
	JOINT right_hip
	{
		OFFSET	82.8	-127.5	0.300001
		CHANNELS 3  Xrotation Yrotation Zrotation
		JOINT right_knee
		{
			OFFSET	28.2	-396.7	2.2
			CHANNELS 3  Xrotation Yrotation Zrotation
			JOINT right_ankle
			{
				OFFSET	11.7	-411.3	35.4
				CHANNELS 3  Xrotation Yrotation Zrotation
				JOINT right_toes
				{
					OFFSET	0	-60	-88.6
					CHANNELS 3  Xrotation Yrotation Zrotation
					JOINT right_foot_ee
					{
						OFFSET	22.5	-16.5	-42.2
						CHANNELS 3  Xrotation Yrotation Zrotation
						End Site
						{
							OFFSET	1	0	0
						}
					}
				}
			}
		}
	}
}
MOTION
Frames: 7
Frame Time: 0.02
1197.24359886 729.411 -1754.60982008 6.39166334478 28.2354028453 -0.81171830167 -1.52976 -0.159391 -0.760357 -1.52945 -0.110686 -0.768958 -1.52764 0.0740472 -0.773346 -1.52847 -0.0490139 -0.775335 1.32523 7.11891 1.26226 1.43063 11.5195 2.01053 -0.0 0.0 -0.0 7.6614 9.69817 14.5851 -40.3841 -48.6712 48.2929 0.353018 -9.91948 0.0306352 57.8974 -1.59035 -6.91061 -1.51874 -10.4931 -14.8688 -0.0 0.0 -0.0 9.97774 8.35358 -19.7982 -10.6407 36.958 -52.9318 1.06621 27.8408 -0.26427 48.8888 0.890412 5.9946 -0.0418387 1.24588 0.806154 0.0 0.0 0.0 21.3896 -11.637 -0.875968 -74.2434 -3.91745 9.89012 30.2138 8.66893 -3.91474 -17.8965 0.0 0.0 -0.0 0.0 -0.0 -6.5685 -15.8423 -7.48181 -4.49694 -0.158855 -0.671686 34.4082 19.7229 4.79995 -39.3739 0.0 0.0 0.0 0.0 0.0 
1176.19591285 731.607 -1773.35400072 7.33503253149 30.0860947028 -1.34174807287 -1.4138 -0.245298 -0.864037 -1.4134 -0.189822 -0.877894 -1.41006 0.0210268 -0.897934 -1.41116 -0.121043 -0.889987 -0.0107129 7.42672 0.774274 0.0989704 12.6089 1.61136 -0.0 0.0 -0.0 7.47023 10.6241 14.1902 -41.6007 -48.8659 50.4409 0.263397 -7.43407 0.0171117 57.08 -1.52097 -6.83212 -1.58378 -8.81901 -14.5929 -0.0 0.0 -0.0 9.77308 6.91438 -19.3555 -8.88867 37.1206 -51.7294 1.24913 31.7473 -0.355217 48.7175 0.878533 5.97617 0.148833 3.56067 0.505534 0.0 0.0 0.0 26.7719 -10.1267 -5.59524 -74.0665 -3.89414 9.87586 29.0862 7.05431 -3.78997 -19.3181 0.0 0.0 -0.0 0.0 -0.0 -8.01421 -13.2004 -7.45469 -3.02283 -0.112604 -0.450188 35.5178 22.2287 5.0211 -38.8285 0.0 0.0 0.0 0.0 0.0 
1160.21503168 728.095 -1786.39620136 5.86757792939 30.8184405614 0.285833765318 -0.980186 -0.316956 -1.02071 -0.979641 -0.251367 -1.03881 -0.974533 -0.00925884 -1.06875 -0.976083 -0.177922 -1.05387 -0.975431 7.63008 0.398319 -0.86594 13.3735 1.31676 -0.0 0.0 -0.0 7.31376 11.2447 13.8784 -42.4982 -48.9923 51.8768 0.201062 -5.68804 0.0099884 56.5465 -1.47629 -6.78036 -1.62819 -7.62997 -14.3791 -0.0 0.0 -0.0 9.62662 5.89721 -19.0359 -7.69504 37.2464 -50.8072 1.38621 34.4751 -0.430119 48.5973 0.870228 5.96321 0.288023 5.24425 0.28073 0.0 0.0 0.0 30.9222 -8.56829 -7.92066 -73.9212 -3.87502 9.86409 28.37 5.92705 -3.71141 -20.2761 0.0 0.0 -0.0 0.0 -0.0 -9.08411 -11.3437 -7.38495 -2.18471 -0.0837684 -0.324795 36.274 24.0767 5.18761 -38.4456 0.0 0.0 0.0 0.0 0.0 
1134.06571321 725.85 -1793.6982294 5.8254838001 32.7941983597 0.699815427466 -0.735046 -0.333654 -1.17436 -0.734316 -0.258256 -1.1932 -0.728283 0.0137953 -1.22075 -0.730319 -0.179158 -1.20761 -1.66113 7.77151 0.124916 -1.55361 13.9115 1.11105 -0.0 0.0 -0.0 7.02563 11.9321 13.3366 -43.7148 -48.9119 53.3883 0.188284 -5.32873 0.00876192 56.1294 -1.44171 -6.73962 -1.64891 -6.71347 -14.117 -0.0 0.0 -0.0 9.51935 4.97346 -18.7985 -7.17326 37.2272 -50.251 1.51295 36.848 -0.504021 48.4715 0.861569 5.94963 0.449033 6.7352 -0.173361 0.0 0.0 0.0 34.2244 -7.1049 -9.12945 -73.7854 -3.85719 9.85305 27.8965 5.2963 -3.6597 -20.9859 0.0 0.0 -0.0 0.0 -0.0 -9.17253 -10.3044 -8.06028 -1.53983 -0.0603328 -0.2286 36.7949 25.5524 5.31873 -38.1797 0.0 0.0 0.0 0.0 0.0 
1121.33173422 717.412 -1807.70498211 3.05625429984 33.3925271326 3.16675600626 0.0821798 -0.252008 -1.58875 0.0835718 -0.150414 -1.60156 0.0884917 0.187117 -1.59769 0.0849353 -0.067523 -1.60719 -2.02405 7.09848 -0.553516 -1.92723 13.2634 0.347254 -0.0 0.0 -0.0 6.02924 13.6313 11.558 -46.9208 -49.4679 54.1724 0.277199 -7.81891 0.0189436 55.3809 -1.38038 -6.66587 -1.50861 -6.08395 -12.864 -0.0 0.0 -0.0 9.30826 2.77391 -18.3173 -6.66398 37.1467 -48.9661 1.74152 40.7807 -0.647373 47.2244 0.777349 5.81402 0.637224 8.46459 -0.708592 0.0 0.0 0.0 33.6149 -2.28347 -10.7729 -58.9731 -2.09013 8.41134 22.3568 4.008 -3.0224 -24.7569 0.0 0.0 -0.0 0.0 -0.0 -10.3211 -8.70349 -9.75214 2.44725 0.108485 0.359819 35.8871 27.5935 5.34176 -37.7083 0.0 0.0 0.0 0.0 0.0 
1089.7049787 722.292 -1824.5995886 3.27115968014 36.1301549088 3.80664142329 0.383735 -0.188529 -1.82195 0.385579 -0.072231 -1.83025 0.388592 0.301899 -1.80663 0.384038 0.0128366 -1.83163 -2.26047 6.71096 -0.893884 -2.16993 12.8469 -0.0374392 -0.0 0.0 -0.0 5.31233 14.9574 10.3322 -49.3887 -49.7848 54.8596 0.337706 -9.49725 0.0280531 54.7827 -1.33208 -6.60636 -1.4025 -5.61094 -11.9214 -0.0 0.0 -0.0 9.07595 1.16436 -17.7967 -6.75313 36.386 -47.9758 1.84541 42.4281 -0.71636 46.3691 0.721307 5.71998 0.759273 9.66802 -1.0188 0.0 0.0 0.0 33.0242 1.00673 -12.7178 -48.5545 -1.09862 7.15136 18.4742 2.98765 -2.54683 -27.3961 0.0 0.0 -0.0 0.0 -0.0 -11.3445 -7.56795 -10.5721 5.24099 0.251024 0.764612 35.2847 29.0137 5.36487 -37.4118 0.0 0.0 0.0 0.0 0.0 
1069.72011664 711.336 -1839.46445666 2.60296363135 36.9361739806 5.23948235001 0.734353 -0.0985323 -2.08944 0.736781 0.0345944 -2.09148 0.73612 0.447383 -2.04338 0.730313 0.119128 -2.08837 -1.23807 5.95836 -0.712102 -1.15572 11.28 -0.0358556 -0.0 0.0 -0.0 5.35329 15.0479 10.3974 -51.6643 -49.4271 53.1024 0.370281 -10.3942 0.0336795 55.3747 -1.37988 -6.66525 -1.24816 -4.04713 -10.1687 -0.0 0.0 -0.0 9.11871 0.97025 -17.8789 -6.62938 35.52 -47.9358 1.88977 43.1063 -0.746482 44.6513 0.613037 5.52866 1.07166 10.4813 -2.77915 0.0 0.0 0.0 34.0367 2.31839 -13.7152 -40.071 -0.471288 6.00822 17.8606 2.08142 -2.47229 -29.8054 0.0 0.0 -0.0 0.0 -0.0 -14.4232 -6.51117 -11.4758 5.60661 0.271137 0.817069 37.4611 29.3428 5.61742 -35.9352 0.0 0.0 0.0 0.0 0.0 
